<svg width="153" height="127" viewBox="0 0 153 127" fill="none" xmlns="http://www.w3.org/2000/svg">
<g clip-path="url(#clip0_1780_5670)">
<rect width="153" height="127" rx="4" fill="#DEE5E5"/>
<rect width="153" height="127" rx="4" fill="#D9D9D9"/>
<g clip-path="url(#clip1_1780_5670)">
<rect width="367.393" height="202.5" transform="translate(-92 -19.5)" fill="#F2F7F7"/>
<g clip-path="url(#clip2_1780_5670)">
<rect width="202.5" height="367.393" transform="translate(275.393 -19.5) rotate(90)" fill="#F2F7F7"/>
<g filter="url(#filter0_f_1780_5670)">
<ellipse cx="132.227" cy="135.909" rx="132.227" ry="135.909" transform="matrix(-0.761924 0.647667 -0.833217 -0.552946 285.322 -40.1005)" fill="#BBDDE5"/>
</g>
<g opacity="0.6" filter="url(#filter1_f_1780_5670)">
<ellipse cx="132.227" cy="135.909" rx="132.227" ry="135.909" transform="matrix(-0.761924 0.647667 -0.833217 -0.552946 285.322 -40.1005)" fill="#FDA599"/>
</g>
<g opacity="0.4" filter="url(#filter2_f_1780_5670)">
<path d="M-11.8073 103.084C-76.9533 59.851 -79.1621 -18.2101 -16.741 -71.2706C45.6802 -124.331 149.094 -132.298 214.24 -89.0656C279.386 -45.8329 462.512 8.38966 400.091 61.4502C337.67 114.511 53.3386 146.316 -11.8073 103.084Z" fill="#FDA599"/>
</g>
<g filter="url(#filter3_f_1780_5670)">
<path d="M-27.2205 44.9667C-80.1969 9.81008 -84.9354 -51.168 -37.804 -91.2316C9.32729 -131.295 90.4807 -135.273 143.457 -100.116C196.434 -64.9597 232.691 -51.2286 185.56 -11.165C138.429 28.8986 62.1556 158.519 -27.2205 44.9667Z" fill="#BBDDE5"/>
</g>
<g filter="url(#filter4_f_1780_5670)">
<path d="M-90.6797 17.0046C-131.677 -10.2027 -108.959 -74.1464 -64.4885 -111.948C-20.0179 -149.75 49.2678 -158.339 90.2655 -131.132C131.263 -103.924 222.336 -20.9924 177.866 16.8095C133.395 54.6113 -49.682 44.2118 -90.6797 17.0046Z" fill="#F2F7F7"/>
</g>
</g>
</g>
<path fill-rule="evenodd" clip-rule="evenodd" d="M44.8825 43.9394C44.5511 43.9394 44.2825 43.6708 44.2825 43.3394L44.2826 35.1768C44.2826 33.7409 45.4467 32.5769 46.8826 32.5769H55.045C55.3764 32.5769 55.645 32.8455 55.645 33.1769C55.645 33.5082 55.3764 33.7769 55.045 33.7769H46.8826C46.1094 33.7769 45.4826 34.4036 45.4826 35.1768L45.4825 43.3394C45.4825 43.6708 45.2138 43.9394 44.8825 43.9394Z" fill="#181C1F"/>
<path fill-rule="evenodd" clip-rule="evenodd" d="M44.8832 49.5144C44.5518 49.5144 44.2832 49.783 44.2832 50.1144L44.2832 61.4061C44.2832 61.7375 44.5518 62.0061 44.8832 62.0061C45.2146 62.0061 45.4832 61.7375 45.4832 61.4061L45.4832 50.1144C45.4832 49.783 45.2146 49.5144 44.8832 49.5144Z" fill="#181C1F"/>
<path fill-rule="evenodd" clip-rule="evenodd" d="M108.117 62.0061C108.448 62.0061 108.717 61.7375 108.717 61.4061L108.717 50.1144C108.717 49.783 108.448 49.5144 108.117 49.5144C107.785 49.5144 107.517 49.783 107.517 50.1144L107.517 61.4061C107.517 61.7375 107.785 62.0061 108.117 62.0061Z" fill="#181C1F"/>
<path fill-rule="evenodd" clip-rule="evenodd" d="M108.117 80.0729C108.448 80.0729 108.717 79.8042 108.717 79.4729L108.717 68.1812C108.717 67.8498 108.448 67.5812 108.117 67.5812C107.785 67.5812 107.517 67.8498 107.517 68.1812L107.517 79.4729C107.517 79.8042 107.785 80.0729 108.117 80.0729Z" fill="#181C1F"/>
<path fill-rule="evenodd" clip-rule="evenodd" d="M61.2207 78.3437C61.2207 78.6751 61.4893 78.9437 61.8207 78.9437H73.1124C73.4438 78.9437 73.7124 78.6751 73.7124 78.3437C73.7124 78.0124 73.4438 77.7437 73.1124 77.7437H61.8207C61.4893 77.7437 61.2207 78.0124 61.2207 78.3437Z" fill="#181C1F"/>
<path fill-rule="evenodd" clip-rule="evenodd" d="M91.7788 33.1768C91.7788 32.8455 91.5102 32.5768 91.1788 32.5768L79.8871 32.5768C79.5557 32.5768 79.2871 32.8455 79.2871 33.1768C79.2871 33.5082 79.5557 33.7768 79.8871 33.7768L91.1788 33.7768C91.5102 33.7768 91.7788 33.5082 91.7788 33.1768Z" fill="#181C1F"/>
<path fill-rule="evenodd" clip-rule="evenodd" d="M91.2148 46.7269C91.2148 47.0583 90.9462 47.3269 90.6148 47.3269H88.3565C88.0251 47.3269 87.7565 47.0583 87.7565 46.7269C87.7565 46.3955 88.0251 46.1269 88.3565 46.1269H90.6148C90.9462 46.1269 91.2148 46.3955 91.2148 46.7269Z" fill="#181C1F"/>
<path fill-rule="evenodd" clip-rule="evenodd" d="M100.249 46.7269C100.249 47.0583 99.9799 47.3269 99.6485 47.3269H97.3902C97.0588 47.3269 96.7902 47.0583 96.7902 46.7269C96.7902 46.3955 97.0588 46.1269 97.3902 46.1269H99.6485C99.9799 46.1269 100.249 46.3955 100.249 46.7269Z" fill="#181C1F"/>
<path fill-rule="evenodd" clip-rule="evenodd" d="M91.2148 64.7937C91.2148 65.125 90.9462 65.3937 90.6148 65.3937H88.3565C88.0251 65.3937 87.7565 65.125 87.7565 64.7937C87.7565 64.4623 88.0251 64.1937 88.3565 64.1937H90.6148C90.9462 64.1937 91.2148 64.4623 91.2148 64.7937Z" fill="#181C1F"/>
<path fill-rule="evenodd" clip-rule="evenodd" d="M100.249 64.7937C100.249 65.125 99.9799 65.3937 99.6485 65.3937H97.3902C97.0588 65.3937 96.7902 65.125 96.7902 64.7937C96.7902 64.4623 97.0588 64.1937 97.3902 64.1937H99.6485C99.9799 64.1937 100.249 64.4623 100.249 64.7937Z" fill="#181C1F"/>
<path fill-rule="evenodd" clip-rule="evenodd" d="M55.6455 46.7269C55.6455 47.0583 55.3769 47.3269 55.0455 47.3269H52.7872C52.4558 47.3269 52.1872 47.0583 52.1872 46.7269C52.1872 46.3955 52.4558 46.1269 52.7872 46.1269H55.0455C55.3769 46.1269 55.6455 46.3955 55.6455 46.7269Z" fill="#181C1F"/>
<path fill-rule="evenodd" clip-rule="evenodd" d="M64.6787 46.7269C64.6787 47.0583 64.4101 47.3269 64.0787 47.3269H61.8204C61.489 47.3269 61.2204 47.0583 61.2204 46.7269C61.2204 46.3955 61.489 46.1269 61.8204 46.1269H64.0787C64.4101 46.1269 64.6787 46.3955 64.6787 46.7269Z" fill="#181C1F"/>
<path fill-rule="evenodd" clip-rule="evenodd" d="M55.6455 64.7937C55.6455 65.125 55.3769 65.3937 55.0455 65.3937H52.7872C52.4558 65.3937 52.1872 65.125 52.1872 64.7937C52.1872 64.4623 52.4558 64.1937 52.7872 64.1937H55.0455C55.3769 64.1937 55.6455 64.4623 55.6455 64.7937Z" fill="#181C1F"/>
<path fill-rule="evenodd" clip-rule="evenodd" d="M64.6787 64.7937C64.6787 65.125 64.4101 65.3937 64.0787 65.3937H61.8204C61.489 65.3937 61.2204 65.125 61.2204 64.7937C61.2204 64.4623 61.489 64.1937 61.8204 64.1937H64.0787C64.4101 64.1937 64.6787 64.4623 64.6787 64.7937Z" fill="#181C1F"/>
<path fill-rule="evenodd" clip-rule="evenodd" d="M85.7265 82.8599C86.3857 83.9707 89.0273 87.7972 94.0374 87.7972C99.0475 87.7972 101.689 83.9707 102.348 82.8599C101.689 81.749 99.0475 77.9226 94.0374 77.9226C89.0273 77.9226 86.3857 81.749 85.7265 82.8599ZM84.6385 82.3432C85.2491 81.2833 88.2059 76.7226 94.0374 76.7226C99.8689 76.7226 102.826 81.2834 103.436 82.3432C103.622 82.665 103.622 83.0548 103.436 83.3766C102.826 84.4364 99.8689 88.9972 94.0374 88.9972C88.2059 88.9972 85.2491 84.4364 84.6385 83.3766C84.4532 83.0548 84.4532 82.665 84.6385 82.3432Z" fill="#181C1F"/>
<path fill-rule="evenodd" clip-rule="evenodd" d="M90.0332 80.7264C90.0332 78.5151 91.8258 76.7226 94.037 76.7226C96.2482 76.7226 98.0408 78.5151 98.0408 80.7264C98.0408 82.9376 96.2482 84.7302 94.037 84.7302C91.8258 84.7302 90.0332 82.9376 90.0332 80.7264ZM94.037 77.9226C92.4885 77.9226 91.2332 79.1779 91.2332 80.7264C91.2332 82.2749 92.4885 83.5302 94.037 83.5302C95.5855 83.5302 96.8408 82.2749 96.8408 80.7264C96.8408 79.1779 95.5855 77.9226 94.037 77.9226Z" fill="#181C1F"/>
<path fill-rule="evenodd" clip-rule="evenodd" d="M73.7124 33.1768C73.7124 32.8455 73.4438 32.5768 73.1124 32.5768L61.8207 32.5768C61.4893 32.5768 61.2207 32.8455 61.2207 33.1768C61.2207 33.5082 61.4893 33.7768 61.8207 33.7768L73.1124 33.7768C73.4438 33.7768 73.7124 33.5082 73.7124 33.1768Z" fill="#181C1F"/>
<path fill-rule="evenodd" clip-rule="evenodd" d="M80.3467 78.8032C80.581 78.5689 80.581 78.189 80.3467 77.9547L76.9239 74.5319C76.6896 74.2976 76.3097 74.2976 76.0754 74.5319L72.6526 77.9547C72.4183 78.189 72.4183 78.5689 72.6526 78.8032C72.8869 79.0375 73.2668 79.0375 73.5011 78.8032L76.4997 75.8047L79.4982 78.8032C79.7325 79.0375 80.1124 79.0375 80.3467 78.8032Z" fill="#181C1F"/>
<path fill-rule="evenodd" clip-rule="evenodd" d="M72.6528 32.7173C72.4185 32.9516 72.4185 33.3315 72.6528 33.5658L76.0756 36.9886C76.3099 37.2229 76.6898 37.2229 76.9241 36.9886L80.3469 33.5658C80.5812 33.3315 80.5812 32.9516 80.3469 32.7173C80.1126 32.483 79.7327 32.483 79.4984 32.7173L76.4998 35.7158L73.5013 32.7173C73.267 32.483 72.8871 32.483 72.6528 32.7173Z" fill="#181C1F"/>
<path fill-rule="evenodd" clip-rule="evenodd" d="M71.9833 67.5812C71.6519 67.5812 71.3833 67.8498 71.3833 68.1812L71.3833 70.4395C71.3833 70.7709 71.6519 71.0395 71.9833 71.0395C72.3147 71.0395 72.5833 70.7709 72.5833 70.4395L72.5833 68.1812C72.5833 67.8498 72.3147 67.5812 71.9833 67.5812Z" fill="#181C1F"/>
<path fill-rule="evenodd" clip-rule="evenodd" d="M71.9833 58.5478C71.6519 58.5478 71.3833 58.8164 71.3833 59.1478L71.3833 61.4061C71.3833 61.7375 71.6519 62.0061 71.9833 62.0061C72.3147 62.0061 72.5833 61.7375 72.5833 61.4061L72.5833 59.1478C72.5833 58.8164 72.3147 58.5478 71.9833 58.5478Z" fill="#181C1F"/>
<path fill-rule="evenodd" clip-rule="evenodd" d="M71.9833 49.5144C71.6519 49.5144 71.3833 49.783 71.3833 50.1144L71.3833 52.3727C71.3833 52.7041 71.6519 52.9727 71.9833 52.9727C72.3147 52.9727 72.5833 52.7041 72.5833 52.3727L72.5833 50.1144C72.5833 49.783 72.3147 49.5144 71.9833 49.5144Z" fill="#181C1F"/>
<path fill-rule="evenodd" clip-rule="evenodd" d="M71.9833 40.4811C71.6519 40.4811 71.3833 40.7497 71.3833 41.0811L71.3833 43.3394C71.3833 43.6708 71.6519 43.9394 71.9833 43.9394C72.3147 43.9394 72.5833 43.6708 72.5833 43.3394L72.5833 41.0811C72.5833 40.7497 72.3147 40.4811 71.9833 40.4811Z" fill="#181C1F"/>
<path fill-rule="evenodd" clip-rule="evenodd" d="M81.0162 67.5812C81.3476 67.5812 81.6162 67.8498 81.6162 68.1812L81.6162 70.4395C81.6162 70.7709 81.3476 71.0395 81.0162 71.0395C80.6848 71.0395 80.4162 70.7709 80.4162 70.4395L80.4162 68.1812C80.4162 67.8498 80.6848 67.5812 81.0162 67.5812Z" fill="#181C1F"/>
<path fill-rule="evenodd" clip-rule="evenodd" d="M81.0162 58.5478C81.3476 58.5478 81.6162 58.8164 81.6162 59.1478L81.6162 61.4061C81.6162 61.7375 81.3476 62.0061 81.0162 62.0061C80.6848 62.0061 80.4162 61.7375 80.4162 61.4061L80.4162 59.1478C80.4162 58.8164 80.6848 58.5478 81.0162 58.5478Z" fill="#181C1F"/>
<path fill-rule="evenodd" clip-rule="evenodd" d="M81.0162 49.5144C81.3476 49.5144 81.6162 49.783 81.6162 50.1144L81.6162 52.3727C81.6162 52.7041 81.3476 52.9727 81.0162 52.9727C80.6848 52.9727 80.4162 52.7041 80.4162 52.3727L80.4162 50.1144C80.4162 49.783 80.6848 49.5144 81.0162 49.5144Z" fill="#181C1F"/>
<path fill-rule="evenodd" clip-rule="evenodd" d="M81.0162 40.4811C81.3476 40.4811 81.6162 40.7497 81.6162 41.0811L81.6162 43.3394C81.6162 43.6708 81.3476 43.9394 81.0162 43.9394C80.6848 43.9394 80.4162 43.6708 80.4162 43.3394L80.4162 41.0811C80.4162 40.7497 80.6848 40.4811 81.0162 40.4811Z" fill="#181C1F"/>
<path fill-rule="evenodd" clip-rule="evenodd" d="M108.117 43.9394C108.448 43.9394 108.717 43.6708 108.717 43.3394L108.717 35.1768C108.717 33.7409 107.553 32.5769 106.117 32.5769H97.9545C97.6231 32.5769 97.3545 32.8455 97.3545 33.1769C97.3545 33.5082 97.6231 33.7769 97.9545 33.7769H106.117C106.89 33.7769 107.517 34.4036 107.517 35.1768L107.517 43.3394C107.517 43.6708 107.786 43.9394 108.117 43.9394Z" fill="#181C1F"/>
<path fill-rule="evenodd" clip-rule="evenodd" d="M44.8825 67.5812C44.5511 67.5812 44.2825 67.8498 44.2825 68.1812L44.2826 76.3438C44.2826 77.7797 45.4467 78.9437 46.8826 78.9437H55.045C55.3764 78.9437 55.645 78.6751 55.645 78.3437C55.645 78.0123 55.3764 77.7437 55.045 77.7437H46.8826C46.1094 77.7437 45.4826 77.1169 45.4826 76.3437L45.4825 68.1812C45.4825 67.8498 45.2138 67.5812 44.8825 67.5812Z" fill="#181C1F"/>
<path fill-rule="evenodd" clip-rule="evenodd" d="M79.2871 95.2813C79.2871 95.6127 79.5557 95.8813 79.8871 95.8813H91.1788C91.5102 95.8813 91.7788 95.6127 91.7788 95.2813C91.7788 94.9499 91.5102 94.6813 91.1788 94.6813H79.8871C79.5557 94.6813 79.2871 94.9499 79.2871 95.2813Z" fill="#181C1F"/>
<path fill-rule="evenodd" clip-rule="evenodd" d="M61.2207 95.2813C61.2207 95.6127 61.4893 95.8813 61.8207 95.8813H73.1124C73.4438 95.8813 73.7124 95.6127 73.7124 95.2813C73.7124 94.9499 73.4438 94.6813 73.1124 94.6813H61.8207C61.4893 94.6813 61.2207 94.9499 61.2207 95.2813Z" fill="#181C1F"/>
<path fill-rule="evenodd" clip-rule="evenodd" d="M100.812 95.2813C100.812 95.6127 100.544 95.8813 100.212 95.8813H97.9542C97.6228 95.8813 97.3542 95.6127 97.3542 95.2813C97.3542 94.9499 97.6228 94.6813 97.9542 94.6813H100.212C100.544 94.6813 100.812 94.9499 100.812 95.2813Z" fill="#181C1F"/>
<path fill-rule="evenodd" clip-rule="evenodd" d="M109.846 95.2813C109.846 95.6127 109.577 95.8813 109.246 95.8813H106.987C106.656 95.8813 106.387 95.6127 106.387 95.2813C106.387 94.9499 106.656 94.6813 106.987 94.6813H109.246C109.577 94.6813 109.846 94.9499 109.846 95.2813Z" fill="#181C1F"/>
<path fill-rule="evenodd" clip-rule="evenodd" d="M46.6123 95.2813C46.6123 95.6127 46.3437 95.8813 46.0123 95.8813H43.754C43.4226 95.8813 43.154 95.6127 43.154 95.2813C43.154 94.9499 43.4226 94.6813 43.754 94.6813H46.0123C46.3437 94.6813 46.6123 94.9499 46.6123 95.2813Z" fill="#181C1F"/>
<path fill-rule="evenodd" clip-rule="evenodd" d="M55.6455 95.2813C55.6455 95.6127 55.3769 95.8813 55.0455 95.8813H52.7872C52.4558 95.8813 52.1872 95.6127 52.1872 95.2813C52.1872 94.9499 52.4558 94.6813 52.7872 94.6813H55.0455C55.3769 94.6813 55.6455 94.9499 55.6455 95.2813Z" fill="#181C1F"/>
</g>
<defs>
<filter id="filter0_f_1780_5670" x="-141.371" y="-204.682" width="425.408" height="350.141" filterUnits="userSpaceOnUse" color-interpolation-filters="sRGB">
<feFlood flood-opacity="0" result="BackgroundImageFix"/>
<feBlend mode="normal" in="SourceGraphic" in2="BackgroundImageFix" result="shape"/>
<feGaussianBlur stdDeviation="30.5659" result="effect1_foregroundBlur_1780_5670"/>
</filter>
<filter id="filter1_f_1780_5670" x="-125.094" y="-188.405" width="392.854" height="317.587" filterUnits="userSpaceOnUse" color-interpolation-filters="sRGB">
<feFlood flood-opacity="0" result="BackgroundImageFix"/>
<feBlend mode="normal" in="SourceGraphic" in2="BackgroundImageFix" result="shape"/>
<feGaussianBlur stdDeviation="22.4274" result="effect1_foregroundBlur_1780_5670"/>
</filter>
<filter id="filter2_f_1780_5670" x="-88.4766" y="-143.25" width="527.673" height="292.881" filterUnits="userSpaceOnUse" color-interpolation-filters="sRGB">
<feFlood flood-opacity="0" result="BackgroundImageFix"/>
<feBlend mode="normal" in="SourceGraphic" in2="BackgroundImageFix" result="shape"/>
<feGaussianBlur stdDeviation="13.1636" result="effect1_foregroundBlur_1780_5670"/>
</filter>
<filter id="filter3_f_1780_5670" x="-88.0744" y="-141.89" width="313.255" height="250.213" filterUnits="userSpaceOnUse" color-interpolation-filters="sRGB">
<feFlood flood-opacity="0" result="BackgroundImageFix"/>
<feBlend mode="normal" in="SourceGraphic" in2="BackgroundImageFix" result="shape"/>
<feGaussianBlur stdDeviation="8.9011" result="effect1_foregroundBlur_1780_5670"/>
</filter>
<filter id="filter4_f_1780_5670" x="-144.751" y="-179.626" width="367.163" height="253.664" filterUnits="userSpaceOnUse" color-interpolation-filters="sRGB">
<feFlood flood-opacity="0" result="BackgroundImageFix"/>
<feBlend mode="normal" in="SourceGraphic" in2="BackgroundImageFix" result="shape"/>
<feGaussianBlur stdDeviation="16.3018" result="effect1_foregroundBlur_1780_5670"/>
</filter>
<clipPath id="clip0_1780_5670">
<rect width="153" height="127" rx="4" fill="white"/>
</clipPath>
<clipPath id="clip1_1780_5670">
<rect width="367.393" height="202.5" fill="white" transform="translate(-92 -19.5)"/>
</clipPath>
<clipPath id="clip2_1780_5670">
<rect width="202.5" height="367.393" fill="white" transform="translate(275.393 -19.5) rotate(90)"/>
</clipPath>
</defs>
</svg>
