<svg width="153" height="127" viewBox="0 0 153 127" fill="none" xmlns="http://www.w3.org/2000/svg">
<g clip-path="url(#clip0_1380_129)">
<rect width="153" height="127" rx="4" fill="#DEE5E5"/>
<rect width="153" height="127" rx="4" fill="#D9D9D9"/>
<g clip-path="url(#clip1_1380_129)">
<rect width="367.393" height="202.5" transform="translate(-92 -19.5)" fill="#F2F7F7"/>
<g clip-path="url(#clip2_1380_129)">
<rect width="202.5" height="367.393" transform="translate(275.393 -19.5) rotate(90)" fill="#F2F7F7"/>
<g filter="url(#filter0_f_1380_129)">
<ellipse cx="132.227" cy="135.909" rx="132.227" ry="135.909" transform="matrix(-0.761924 0.647667 -0.833217 -0.552946 285.322 -40.1004)" fill="#BBDDE5"/>
</g>
<g opacity="0.8" filter="url(#filter1_f_1380_129)">
<ellipse cx="132.227" cy="135.909" rx="132.227" ry="135.909" transform="matrix(-0.761924 0.647667 -0.833217 -0.552946 285.322 -40.1004)" fill="#F4E28D"/>
</g>
<g opacity="0.6" filter="url(#filter2_f_1380_129)">
<path d="M-45.7397 88.6019C-108.281 47.0975 -110.849 -27.4629 -51.4748 -77.9334C7.89943 -128.404 106.732 -135.673 169.273 -94.1681C231.815 -52.6637 407.228 -0.274822 347.854 50.1957C288.479 100.666 16.8019 130.106 -45.7397 88.6019Z" fill="#F4E28D"/>
</g>
<g filter="url(#filter3_f_1380_129)">
<path d="M-36.0657 35.4667C-89.0421 0.310084 -93.7806 -60.668 -46.6493 -100.732C0.482077 -140.795 81.6355 -144.773 134.612 -109.616C187.588 -74.4597 223.846 -60.7286 176.715 -20.665C129.584 19.3986 53.3103 149.019 -36.0657 35.4667Z" fill="#BBDDE5"/>
</g>
<g filter="url(#filter4_f_1380_129)">
<path d="M-67.9262 10.6455C-113.913 -19.8725 -98.9591 -82.647 -58.0464 -117.424C-17.1338 -152.202 53.3118 -155.655 99.2983 -125.137C145.285 -94.619 250.437 -4.14322 209.525 30.6342C168.612 65.4116 -21.9397 41.1634 -67.9262 10.6455Z" fill="#F2F7F7"/>
</g>
</g>
</g>
<path fill-rule="evenodd" clip-rule="evenodd" d="M22 100.006C21.7138 100.769 21.4381 101.39 21.0602 101.954C20.5691 102.686 19.9579 103.331 19.2524 103.86C18.6558 104.308 17.9834 104.636 17.1317 105C17.9834 105.364 18.6558 105.692 19.2524 106.14C19.9579 106.669 20.5691 107.314 21.0602 108.046C21.4381 108.61 21.7138 109.231 22 109.994C22.2863 109.231 22.5619 108.61 22.9398 108.046C23.4309 107.314 24.0421 106.669 24.7477 106.14C25.3443 105.692 26.0167 105.364 26.8683 105C26.0167 104.636 25.3443 104.308 24.7477 103.86C24.0421 103.331 23.4309 102.686 22.9398 101.954C22.5619 101.39 22.2863 100.769 22 100.006ZM21.6024 98.8987C21.1838 100.084 20.8903 100.86 20.4372 101.536C19.9931 102.199 19.4403 102.782 18.8023 103.26C18.1379 103.759 17.3609 104.097 16.1582 104.594C16.1577 104.594 16.1573 104.595 16.1568 104.595C16.1429 104.601 16.1289 104.606 16.1149 104.612C16.1149 104.612 16.1148 104.612 16.1148 104.612C16.026 104.649 15.935 104.686 15.8415 104.725C15.5961 104.826 15.5961 105.174 15.8415 105.275C15.935 105.314 16.026 105.351 16.1148 105.388C16.1148 105.388 16.1148 105.388 16.1149 105.388C16.1289 105.394 16.1429 105.399 16.1568 105.405C16.1573 105.405 16.1577 105.405 16.1582 105.406C17.361 105.903 18.1379 106.241 18.8023 106.739C19.4403 107.218 19.9931 107.801 20.4372 108.464C20.8903 109.14 21.1838 109.916 21.6024 111.101C21.6056 111.11 21.6089 111.119 21.6121 111.129C21.6309 111.182 21.65 111.236 21.6694 111.291C21.6694 111.291 21.6694 111.291 21.6694 111.291C21.6932 111.359 21.7174 111.428 21.7421 111.498C21.8277 111.742 22.1723 111.742 22.2579 111.498L22.2579 111.498C22.2826 111.428 22.3068 111.359 22.3306 111.291C22.3306 111.291 22.3306 111.291 22.3306 111.291C22.35 111.236 22.3691 111.182 22.388 111.129C22.3912 111.119 22.3944 111.11 22.3976 111.101C22.8163 109.916 23.1097 109.14 23.5628 108.464C24.007 107.801 24.5597 107.218 25.1978 106.739C25.8622 106.241 26.6391 105.903 27.8418 105.406C27.8423 105.405 27.8428 105.405 27.8432 105.405C27.8571 105.399 27.871 105.394 27.885 105.388C27.8851 105.388 27.8851 105.388 27.8851 105.388C27.9739 105.351 28.065 105.314 28.1585 105.275C28.4039 105.174 28.4038 104.826 28.1584 104.725L28.1584 104.725C28.065 104.686 27.974 104.649 27.8853 104.612C27.8852 104.612 27.8852 104.612 27.8852 104.612C27.8711 104.606 27.8571 104.601 27.8432 104.595C27.8428 104.595 27.8423 104.594 27.8419 104.594C26.6391 104.097 25.8622 103.759 25.1978 103.26C24.5597 102.782 24.007 102.199 23.5628 101.536C23.1097 100.86 22.8163 100.084 22.3976 98.8987C22.3944 98.8896 22.3912 98.8805 22.388 98.8714C22.3691 98.818 22.35 98.7638 22.3307 98.7087C22.3307 98.7087 22.3306 98.7087 22.3306 98.7086C22.3068 98.641 22.2826 98.5721 22.2579 98.5018C22.1723 98.2581 21.8277 98.2582 21.7421 98.5018C21.7174 98.5721 21.6932 98.641 21.6694 98.7085C21.6694 98.7086 21.6694 98.7086 21.6694 98.7086C21.65 98.7637 21.6309 98.818 21.6121 98.8714C21.6088 98.8805 21.6056 98.8896 21.6024 98.8987Z" fill="#181C1F"/>
<path fill-rule="evenodd" clip-rule="evenodd" d="M15.5874 98.4696C15.441 98.6161 15.2035 98.6161 15.0571 98.4696L14.5268 97.9393C14.3803 97.7929 14.3803 97.5554 14.5268 97.409C14.6732 97.2625 14.9107 97.2625 15.0571 97.409L15.5874 97.9393C15.7339 98.0858 15.7339 98.3232 15.5874 98.4696Z" fill="#181C1F"/>
<path fill-rule="evenodd" clip-rule="evenodd" d="M17.7088 100.591C17.5623 100.737 17.3249 100.737 17.1784 100.591L16.6481 100.061C16.5017 99.9142 16.5017 99.6768 16.6481 99.5303C16.7946 99.3839 17.032 99.3839 17.1784 99.5303L17.7088 100.061C17.8552 100.207 17.8552 100.445 17.7088 100.591Z" fill="#181C1F"/>
<path fill-rule="evenodd" clip-rule="evenodd" d="M27.5874 110.587C27.441 110.734 27.2035 110.734 27.0571 110.587L26.5268 110.057C26.3803 109.911 26.3803 109.673 26.5268 109.527C26.6732 109.38 26.9107 109.38 27.0571 109.527L27.5874 110.057C27.7339 110.203 27.7339 110.441 27.5874 110.587Z" fill="#181C1F"/>
<path fill-rule="evenodd" clip-rule="evenodd" d="M29.7088 112.709C29.5623 112.855 29.3249 112.855 29.1784 112.709L28.6481 112.178C28.5017 112.032 28.5017 111.794 28.6481 111.648C28.7946 111.502 29.032 111.502 29.1784 111.648L29.7088 112.178C29.8552 112.325 29.8552 112.562 29.7088 112.709Z" fill="#181C1F"/>
<path fill-rule="evenodd" clip-rule="evenodd" d="M15.5874 111.648C15.7338 111.794 15.7338 112.032 15.5874 112.178L15.057 112.709C14.9106 112.855 14.6732 112.855 14.5267 112.709C14.3803 112.562 14.3803 112.325 14.5267 112.178L15.057 111.648C15.2035 111.501 15.4409 111.501 15.5874 111.648Z" fill="#181C1F"/>
<path fill-rule="evenodd" clip-rule="evenodd" d="M17.7087 109.527C17.8552 109.673 17.8552 109.911 17.7087 110.057L17.1784 110.587C17.0319 110.734 16.7945 110.734 16.6481 110.587C16.5016 110.441 16.5016 110.203 16.6481 110.057L17.1784 109.527C17.3248 109.38 17.5623 109.38 17.7087 109.527Z" fill="#181C1F"/>
<path fill-rule="evenodd" clip-rule="evenodd" d="M27.5874 99.5304C27.7338 99.6768 27.7338 99.9143 27.5874 100.061L27.057 100.591C26.9106 100.737 26.6732 100.737 26.5267 100.591C26.3803 100.445 26.3803 100.207 26.5267 100.061L27.057 99.5304C27.2035 99.3839 27.4409 99.3839 27.5874 99.5304Z" fill="#181C1F"/>
<path fill-rule="evenodd" clip-rule="evenodd" d="M29.7087 97.409C29.8552 97.5555 29.8552 97.7929 29.7087 97.9394L29.1784 98.4697C29.0319 98.6161 28.7945 98.6161 28.6481 98.4697C28.5016 98.3232 28.5016 98.0858 28.6481 97.9394L29.1784 97.409C29.3248 97.2626 29.5623 97.2626 29.7087 97.409Z" fill="#181C1F"/>
<path fill-rule="evenodd" clip-rule="evenodd" d="M12.25 105C12.25 105.207 12.0821 105.375 11.875 105.375H11.125C10.9179 105.375 10.75 105.207 10.75 105C10.75 104.793 10.9179 104.625 11.125 104.625H11.875C12.0821 104.625 12.25 104.793 12.25 105Z" fill="#181C1F"/>
<path fill-rule="evenodd" clip-rule="evenodd" d="M33.25 105C33.25 105.207 33.0821 105.375 32.875 105.375H32.125C31.9179 105.375 31.75 105.207 31.75 105C31.75 104.793 31.9179 104.625 32.125 104.625H32.875C33.0821 104.625 33.25 104.793 33.25 105Z" fill="#181C1F"/>
<path fill-rule="evenodd" clip-rule="evenodd" d="M22 114.75C22.2071 114.75 22.375 114.918 22.375 115.125L22.375 115.875C22.375 116.082 22.2071 116.25 22 116.25C21.7929 116.25 21.625 116.082 21.625 115.875L21.625 115.125C21.625 114.918 21.7929 114.75 22 114.75Z" fill="#181C1F"/>
<path fill-rule="evenodd" clip-rule="evenodd" d="M22 93.75C22.2071 93.75 22.375 93.9179 22.375 94.125L22.375 94.875C22.375 95.0821 22.2071 95.25 22 95.25C21.7929 95.25 21.625 95.0821 21.625 94.875L21.625 94.125C21.625 93.9179 21.7929 93.75 22 93.75Z" fill="#181C1F"/>
<path fill-rule="evenodd" clip-rule="evenodd" d="M131 17.006C130.714 17.7687 130.438 18.3899 130.06 18.9537C129.569 19.6864 128.958 20.331 128.252 20.8604C127.656 21.308 126.983 21.6361 126.132 22C126.983 22.3639 127.656 22.6919 128.252 23.1396C128.958 23.6689 129.569 24.3135 130.06 25.0462C130.438 25.6101 130.714 26.2313 131 26.994C131.286 26.2313 131.562 25.6101 131.94 25.0462C132.431 24.3135 133.042 23.6689 133.748 23.1396C134.344 22.6919 135.017 22.3639 135.868 22C135.017 21.6361 134.344 21.308 133.748 20.8604C133.042 20.331 132.431 19.6864 131.94 18.9537C131.562 18.3899 131.286 17.7687 131 17.006ZM130.602 15.8987C130.184 17.0844 129.89 17.8601 129.437 18.5362C128.993 19.1988 128.44 19.7817 127.802 20.2605C127.138 20.759 126.361 21.0969 125.158 21.5943C125.158 21.5945 125.157 21.5947 125.157 21.5949C125.143 21.6006 125.129 21.6064 125.115 21.6122C125.115 21.6122 125.115 21.6122 125.115 21.6122C125.026 21.6489 124.935 21.6864 124.841 21.725C124.596 21.8262 124.596 22.1738 124.842 22.275C124.935 22.3135 125.026 22.3511 125.115 22.3877C125.115 22.3877 125.115 22.3878 125.115 22.3878C125.129 22.3936 125.143 22.3993 125.157 22.4051C125.157 22.4053 125.158 22.4055 125.158 22.4057C126.361 22.903 127.138 23.241 127.802 23.7395C128.44 24.2182 128.993 24.8012 129.437 25.4638C129.89 26.1398 130.184 26.9155 130.602 28.1013C130.606 28.1103 130.609 28.1194 130.612 28.1286C130.631 28.182 130.65 28.2362 130.669 28.2913C130.669 28.2914 130.669 28.2914 130.669 28.2914C130.693 28.359 130.717 28.4279 130.742 28.4982C130.828 28.7418 131.172 28.7418 131.258 28.4982L131.258 28.4982C131.283 28.4279 131.307 28.359 131.331 28.2914C131.331 28.2914 131.331 28.2913 131.331 28.2913C131.35 28.2362 131.369 28.182 131.388 28.1286C131.391 28.1195 131.394 28.1103 131.398 28.1013C131.816 26.9155 132.11 26.1398 132.563 25.4638C133.007 24.8012 133.56 24.2182 134.198 23.7395C134.862 23.241 135.639 22.903 136.842 22.4057C136.842 22.4055 136.843 22.4053 136.843 22.4051C136.857 22.3994 136.871 22.3936 136.885 22.3878C136.885 22.3878 136.885 22.3878 136.885 22.3878C136.974 22.3511 137.065 22.3135 137.159 22.275C137.404 22.1738 137.404 21.8262 137.158 21.725L137.158 21.7249C137.065 21.6864 136.974 21.6489 136.885 21.6122C136.885 21.6122 136.885 21.6122 136.885 21.6122C136.871 21.6064 136.857 21.6006 136.843 21.5949C136.843 21.5947 136.842 21.5945 136.842 21.5943C135.639 21.0969 134.862 20.759 134.198 20.2605C133.56 19.7817 133.007 19.1988 132.563 18.5362C132.11 17.8601 131.816 17.0844 131.398 15.8987C131.394 15.8896 131.391 15.8805 131.388 15.8714C131.369 15.818 131.35 15.7638 131.331 15.7087C131.331 15.7087 131.331 15.7087 131.331 15.7086C131.307 15.641 131.283 15.5721 131.258 15.5018C131.172 15.2581 130.828 15.2582 130.742 15.5018C130.717 15.5721 130.693 15.641 130.669 15.7085C130.669 15.7086 130.669 15.7086 130.669 15.7086C130.65 15.7637 130.631 15.818 130.612 15.8714C130.609 15.8805 130.606 15.8896 130.602 15.8987Z" fill="#181C1F"/>
<path fill-rule="evenodd" clip-rule="evenodd" d="M121.25 22C121.25 22.2071 121.082 22.375 120.875 22.375H120.125C119.918 22.375 119.75 22.2071 119.75 22C119.75 21.7929 119.918 21.625 120.125 21.625H120.875C121.082 21.625 121.25 21.7929 121.25 22Z" fill="#181C1F"/>
<path fill-rule="evenodd" clip-rule="evenodd" d="M142.25 22C142.25 22.2071 142.082 22.375 141.875 22.375H141.125C140.918 22.375 140.75 22.2071 140.75 22C140.75 21.7929 140.918 21.625 141.125 21.625H141.875C142.082 21.625 142.25 21.7929 142.25 22Z" fill="#181C1F"/>
<path fill-rule="evenodd" clip-rule="evenodd" d="M131 31.75C131.207 31.75 131.375 31.9179 131.375 32.125L131.375 32.875C131.375 33.0821 131.207 33.25 131 33.25C130.793 33.25 130.625 33.0821 130.625 32.875L130.625 32.125C130.625 31.9179 130.793 31.75 131 31.75Z" fill="#181C1F"/>
<path fill-rule="evenodd" clip-rule="evenodd" d="M131 10.75C131.207 10.75 131.375 10.9179 131.375 11.125L131.375 11.875C131.375 12.0821 131.207 12.25 131 12.25C130.793 12.25 130.625 12.0821 130.625 11.875L130.625 11.125C130.625 10.9179 130.793 10.75 131 10.75Z" fill="#181C1F"/>
<path fill-rule="evenodd" clip-rule="evenodd" d="M125.828 16.8277C125.974 16.6812 125.974 16.4438 125.828 16.2973L122.453 12.9223C122.306 12.7759 122.069 12.7759 121.922 12.9223C121.776 13.0688 121.776 13.3062 121.922 13.4527L125.297 16.8277C125.444 16.9741 125.681 16.9741 125.828 16.8277Z" fill="#181C1F"/>
<path fill-rule="evenodd" clip-rule="evenodd" d="M136.172 16.8277C136.319 16.9741 136.556 16.9741 136.703 16.8277L140.078 13.4527C140.224 13.3062 140.224 13.0688 140.078 12.9223C139.931 12.7759 139.694 12.7759 139.547 12.9223L136.172 16.2973C136.026 16.4438 136.026 16.6812 136.172 16.8277Z" fill="#181C1F"/>
<path fill-rule="evenodd" clip-rule="evenodd" d="M136.172 27.1723C136.026 27.3188 136.026 27.5562 136.172 27.7027L139.547 31.0777C139.694 31.2241 139.931 31.2241 140.078 31.0777C140.224 30.9312 140.224 30.6938 140.078 30.5473L136.703 27.1723C136.556 27.0259 136.319 27.0259 136.172 27.1723Z" fill="#181C1F"/>
<path fill-rule="evenodd" clip-rule="evenodd" d="M125.828 27.1723C125.681 27.0259 125.444 27.0259 125.297 27.1723L121.922 30.5473C121.776 30.6938 121.776 30.9312 121.922 31.0777C122.069 31.2241 122.306 31.2241 122.453 31.0777L125.828 27.7027C125.974 27.5562 125.974 27.3188 125.828 27.1723Z" fill="#181C1F"/>
<path fill-rule="evenodd" clip-rule="evenodd" d="M84.5483 36.619L104.55 48.1165C105.638 48.7418 106.308 49.9009 106.308 51.1556C106.308 52.4104 105.638 53.5695 104.55 54.1948L84.5556 65.6881C83.013 66.5748 81.8172 67.2622 80.7924 67.7243C79.7494 68.1946 78.841 68.4522 77.8668 68.4513C76.8926 68.4505 75.9847 68.1913 74.9425 67.7192C73.9185 67.2553 72.7239 66.5658 71.1829 65.6764L57.9564 58.0426C56.5077 57.2065 54.7227 57.2081 53.2755 58.0469C51.6127 59.0108 50.589 60.7873 50.589 62.7093V65.6239L50.5892 65.7359C50.6075 69.3932 52.5559 72.7689 55.7136 74.6141L55.8105 74.6702L71.7456 83.8753C73.3227 84.7863 74.4685 85.4474 75.434 85.8851C76.3874 86.3173 77.122 86.5107 77.8672 86.511C78.6124 86.5114 79.3472 86.3186 80.301 85.8873C81.2669 85.4505 82.4133 84.7905 83.9912 83.8809L101.023 74.0629C101.426 73.8308 101.69 73.6778 101.884 73.5392C102.067 73.4084 102.146 73.3178 102.196 73.2312C102.246 73.1447 102.285 73.0305 102.307 72.8068C102.33 72.5699 102.331 72.2646 102.331 71.8V68.6248C102.331 68.489 102.331 68.3759 102.329 68.2779C102.243 68.3253 102.145 68.3817 102.028 68.4495L81.351 80.3683C80.5899 80.807 79.9808 81.1581 79.4545 81.3961C78.91 81.6424 78.4117 81.7882 77.8665 81.7881C77.3212 81.7879 76.8229 81.6418 76.2786 81.3953C75.7524 81.157 75.1435 80.8055 74.3827 80.3664L57.4524 70.5949C56.9259 70.2912 56.5879 70.0961 56.3063 69.8499C55.6771 69.2996 55.2462 68.5579 55.0797 67.7388C55.0052 67.3722 55.0031 66.9819 55 66.3742L54.9995 66.2903C54.9972 65.8512 54.9952 65.4955 55.01 65.2136C55.0249 64.9307 55.0582 64.6612 55.1575 64.4178C55.5358 63.4907 56.4907 62.9344 57.4837 63.0626C57.7444 63.0962 57.9954 63.2001 58.2487 63.3267C58.5013 63.4529 58.8097 63.6299 59.1905 63.8485L74.9645 72.9031C75.7559 73.3574 76.3124 73.6761 76.7772 73.8854C77.2299 74.0894 77.5524 74.1687 77.8661 74.1686C78.1799 74.1685 78.5024 74.089 78.955 73.8848C79.4196 73.6752 79.9759 73.3561 80.7671 72.9014L104.049 59.5184C105.075 58.9284 106.335 58.9199 107.37 59.4959C108.438 60.0911 109.101 61.2184 109.101 62.4416V69.4741C109.101 71.2586 109.101 72.6421 108.99 73.764C108.878 74.9058 108.647 75.824 108.158 76.6698C107.67 77.5155 106.989 78.1739 106.056 78.8417C105.14 79.4978 103.941 80.1887 102.395 81.0799L90.9845 87.6579C87.8738 89.4512 85.5015 90.8187 83.477 91.7343C81.4342 92.6582 79.7028 93.1427 77.8669 93.1421C76.0311 93.1415 74.3 92.6558 72.2578 91.7306C70.234 90.8136 67.8626 89.4445 64.7532 87.6492L53.9688 81.4226C53.8426 81.3497 53.7769 81.3118 53.7154 81.2757C47.678 77.7323 43.9495 71.2743 43.8997 64.2741C43.8992 64.2033 43.8992 64.128 43.8992 63.9842V63.978C43.8992 63.8341 43.8992 63.7587 43.8997 63.6879C43.9496 56.6797 47.6864 50.2157 53.7346 46.6751C53.7957 46.6394 53.861 46.6018 53.9855 46.53L71.187 36.6243C72.7272 35.7373 73.9212 35.0497 74.9446 34.5872C75.9861 34.1165 76.8934 33.8583 77.8666 33.8579C78.8399 33.8575 79.7473 34.115 80.7892 34.5849C81.8129 35.0466 83.0074 35.7333 84.5483 36.619ZM80.2952 35.6804C79.3435 35.2512 78.6104 35.0593 77.8671 35.0596C77.1238 35.0599 76.3909 35.2523 75.4395 35.6823C74.4762 36.1177 73.3328 36.7753 71.7589 37.6817L54.5882 47.5697C54.4602 47.6434 54.3987 47.6788 54.3417 47.7122C48.6592 51.0388 45.1483 57.112 45.1014 63.6964C45.1009 63.7625 45.1009 63.8334 45.1009 63.9811C45.1009 64.1287 45.1009 64.1995 45.1014 64.2655C45.1482 70.8426 48.6512 76.9101 54.3236 80.2393C54.3806 80.2727 54.4419 80.3081 54.5697 80.3819L65.3254 86.5919C68.4691 88.407 70.7899 89.7462 72.7538 90.636C74.7056 91.5203 76.262 91.9399 77.8674 91.9404C79.4727 91.9409 81.0294 91.5224 82.9818 90.6394C84.9462 89.751 87.2679 88.4133 90.4129 86.6003L101.767 80.055C103.347 79.1443 104.494 78.4822 105.357 77.8645C106.209 77.2545 106.745 76.7145 107.118 76.0686C107.491 75.4226 107.691 74.689 107.794 73.646C107.898 72.5899 107.899 71.2654 107.899 69.4419V62.4416C107.899 61.6543 107.473 60.9288 106.785 60.5457C106.119 60.175 105.308 60.1805 104.648 60.5602L81.3396 73.9583C80.581 74.3944 79.9738 74.7435 79.4491 74.9802C78.9064 75.225 78.4098 75.3701 77.8665 75.3703C77.3232 75.3704 76.8265 75.2256 76.2836 74.9811C75.7589 74.7448 75.1515 74.3961 74.3927 73.9605L58.6087 64.9001C58.2076 64.6699 57.9293 64.5105 57.7116 64.4017C57.491 64.2915 57.3861 64.2616 57.3299 64.2544C56.8775 64.196 56.4425 64.4495 56.2702 64.8718C56.2488 64.9243 56.223 65.0302 56.2101 65.2765C56.1973 65.5195 56.1988 65.8403 56.2013 66.3027C56.205 66.9974 56.2092 67.2626 56.2573 67.4994C56.3713 68.0604 56.6665 68.5684 57.0974 68.9453C57.2793 69.1044 57.5077 69.2393 58.1094 69.5866L74.9568 79.3103C75.7503 79.7682 76.3083 80.0895 76.7744 80.3006C77.2284 80.5062 77.5519 80.5863 77.8668 80.5864C78.1816 80.5865 78.5052 80.5066 78.9593 80.3012C79.4255 80.0904 79.9837 79.7694 80.7774 79.3119L101.46 67.3893C101.699 67.2517 101.933 67.1166 102.134 67.0373C102.35 66.9524 102.691 66.8647 103.032 67.0618C103.373 67.2589 103.467 67.5979 103.501 67.827C103.533 68.0408 103.533 68.3112 103.533 68.5867L103.533 71.828C103.533 72.2571 103.533 72.622 103.503 72.9248C103.471 73.2473 103.402 73.5461 103.237 73.8325C103.071 74.1188 102.847 74.3278 102.583 74.5164C102.336 74.6935 102.02 74.8757 101.648 75.09L84.5634 84.9382C83.0192 85.8283 81.8222 86.5183 80.7962 86.9823C79.752 87.4545 78.8424 87.7132 77.8667 87.7127C76.8909 87.7123 75.9816 87.4527 74.9378 86.9796C73.9122 86.5147 72.7158 85.8235 71.1724 84.932L55.2094 75.7108C55.1755 75.6912 55.1522 75.6777 55.1329 75.6665C55.1237 75.6612 55.1155 75.6564 55.1074 75.6517C51.5827 73.5921 49.4079 69.8241 49.3875 65.7419C49.3873 65.713 49.3873 65.6823 49.3873 65.6256V62.7093C49.3873 60.3587 50.6392 58.186 52.6729 57.0073C54.4921 55.9528 56.736 55.9507 58.5571 57.0018L71.7558 64.6196C73.3305 65.5284 74.4745 66.1879 75.4384 66.6246C76.3904 67.0558 77.1238 67.249 77.8679 67.2496C78.6119 67.2503 79.3457 67.0584 80.2984 66.6288C81.2631 66.1938 82.4083 65.5363 83.9845 64.6303L103.951 53.153C104.666 52.742 105.107 51.9803 105.107 51.1556C105.107 50.331 104.666 49.5693 103.951 49.1583L83.9773 37.6769C82.4028 36.7718 81.2589 36.115 80.2952 35.6804Z" fill="#181C1F"/>
</g>
<defs>
<filter id="filter0_f_1380_129" x="-141.371" y="-204.682" width="425.408" height="350.141" filterUnits="userSpaceOnUse" color-interpolation-filters="sRGB">
<feFlood flood-opacity="0" result="BackgroundImageFix"/>
<feBlend mode="normal" in="SourceGraphic" in2="BackgroundImageFix" result="shape"/>
<feGaussianBlur stdDeviation="30.5659" result="effect1_foregroundBlur_1380_129"/>
</filter>
<filter id="filter1_f_1380_129" x="-125.094" y="-188.405" width="392.854" height="317.587" filterUnits="userSpaceOnUse" color-interpolation-filters="sRGB">
<feFlood flood-opacity="0" result="BackgroundImageFix"/>
<feBlend mode="normal" in="SourceGraphic" in2="BackgroundImageFix" result="shape"/>
<feGaussianBlur stdDeviation="22.4274" result="effect1_foregroundBlur_1380_129"/>
</filter>
<filter id="filter2_f_1380_129" x="-120.706" y="-147.43" width="506.973" height="282.065" filterUnits="userSpaceOnUse" color-interpolation-filters="sRGB">
<feFlood flood-opacity="0" result="BackgroundImageFix"/>
<feBlend mode="normal" in="SourceGraphic" in2="BackgroundImageFix" result="shape"/>
<feGaussianBlur stdDeviation="13.1636" result="effect1_foregroundBlur_1380_129"/>
</filter>
<filter id="filter3_f_1380_129" x="-96.9196" y="-151.39" width="313.255" height="250.213" filterUnits="userSpaceOnUse" color-interpolation-filters="sRGB">
<feFlood flood-opacity="0" result="BackgroundImageFix"/>
<feBlend mode="normal" in="SourceGraphic" in2="BackgroundImageFix" result="shape"/>
<feGaussianBlur stdDeviation="8.9011" result="effect1_foregroundBlur_1380_129"/>
</filter>
<filter id="filter4_f_1380_129" x="-128.83" y="-178.549" width="380.221" height="258.873" filterUnits="userSpaceOnUse" color-interpolation-filters="sRGB">
<feFlood flood-opacity="0" result="BackgroundImageFix"/>
<feBlend mode="normal" in="SourceGraphic" in2="BackgroundImageFix" result="shape"/>
<feGaussianBlur stdDeviation="16.3018" result="effect1_foregroundBlur_1380_129"/>
</filter>
<clipPath id="clip0_1380_129">
<rect width="153" height="127" rx="4" fill="white"/>
</clipPath>
<clipPath id="clip1_1380_129">
<rect width="367.393" height="202.5" fill="white" transform="translate(-92 -19.5)"/>
</clipPath>
<clipPath id="clip2_1380_129">
<rect width="202.5" height="367.393" fill="white" transform="translate(275.393 -19.5) rotate(90)"/>
</clipPath>
</defs>
</svg>
